# xmcd CD database file
#
# Track frame offsets:
#	150
#	19321
#	38688
#	57606
#	78128
#	94197
#	118660
#	131986
#	147796
#	166703
#	184112
#	201795
#	220202
#	241331
#	253280
#	266682
#	285842
#	307274
#
# Disc length: 4384 seconds
#
# Revision: 2
# Processed by: cddbd v1.4PL0 Copyright (c) Steve Scherf et al.
# Submitted via: CDex 1.51
#
DISCID=0a111e12
DTITLE=Various (SuperClubs Breezes DR) - Vamos a la Playa
DYEAR=1900
DGENRE=Merengue
TTITLE0=Sunshine Friends - Vamos a la Playa
TTITLE1=Evory - Azul
TTITLE2=Euly - Yo no Te Dije Adiós
TTITLE3=Don Andrés - Beso a Beso
TTITLE4=Reina Mía - La Vida es un Carnaval
TTITLE5=Callejeros - Live At Jimy's (Mamajuana)
TTITLE6=El Fiscal - 1,2,3
TTITLE7=Las Chicas del Clan - Asereje
TTITLE8=Ilia - Amar Haciendo El Amor
TTITLE9=Sebastián - Se nos Perdió El Armor
TTITLE10=Juventud Libre - Obsesión
TTITLE11=Romeo y Julieta - Dos Locos
TTITLE12=Euly - Como Olvidar
TTITLE13=Los Héroes del Merengue - Ya Me Liberé
TTITLE14=Willie, Willie - Kulikitaka
TTITLE15=Sunshine Friends - Vamos a la Playa (English)
TTITLE16=Sunshine Friends - Vamos a la Playa (Dance)
TTITLE17=Sunshine Friends - Vamos a la Playa (Reggae Mix)
EXTD=
EXTT0=
EXTT1=
EXTT2=
EXTT3=
EXTT4=
EXTT5=
EXTT6=
EXTT7=
EXTT8=
EXTT9=
EXTT10=
EXTT11=
EXTT12=
EXTT13=
EXTT14=
EXTT15=
EXTT16=
EXTT17=
PLAYORDER=
